<?xml version="1.0" encoding="utf-8"?>
<!-- Generator: Adobe Illustrator 22.0.1, SVG Export Plug-In . SVG Version: 6.00 Build 0)  -->
<svg version="1.1" id="Layer_1" xmlns="http://www.w3.org/2000/svg" xmlns:xlink="http://www.w3.org/1999/xlink" x="0px" y="0px"
	 viewBox="0 0 950 293.7" style="enable-background:new 0 0 950 293.7;" xml:space="preserve">
<style type="text/css">
	.st0{fill:#EF2637;}
	.st1{fill:#5A5A5F;}
</style>
<g>
	<g>
		<path class="st0" d="M195.5,210.2c34.3-20.6,53.9-55.4,53.9-95.5C249.4,47.9,196.7-0.5,124-0.5H0.2v294.2h259.5L195.5,210.2z
			 M25.6,24.9H124c58.9,0,100,36.9,100,89.8c0,32.2-16,59.7-44,75.3l-24.2-31.7c17.6-6.6,28.3-23.1,28.3-44.1
			c0-28.6-23.5-50.2-54.7-50.2H65.5v165.4h56.7c17.6,0,34.4-2.7,49.8-8.2l36.2,47.1H25.6V24.9z M155.5,199.8
			c-10.4,2.8-21.6,4.2-33.3,4.2H90.9V89.4h38.5c13.9,0,28.6,8.9,28.6,25.5c0,15-11,25.2-27.4,25.2h-21L155.5,199.8z"/>
		<g>
			<rect x="918.9" y="24.9" class="st1" width="31.3" height="154.7"/>
			<path class="st1" d="M844.2,65.3c-15.9,0-32.4,4.7-46.4,13.6l11.6,22.1c10.5-6.6,20.8-10.5,32.2-10.5c15.9,0,20.6,5.6,20.6,14.4
				v3.7l-23.5,3.5c-30.7,4.5-45.4,14.4-45.4,37.1c0,21.2,16.3,33,40.4,33c13.8,0,25.4-5.4,32.8-14.4l3.5,11.8h23.7V106
				C893.7,79.1,874.8,65.3,844.2,65.3z M862.6,138.3c0,14.4-8.7,20.4-20.8,20.4c-10.1,0-16.9-4.3-16.9-12.6c0-8,5.2-11.8,19-14.2
				l18.8-2.9V138.3z"/>
			<rect x="744.4" y="73.5" class="st1" width="31.3" height="106.1"/>
			<path class="st1" d="M760,58.1c10.3,0,17.9-7.8,17.9-17.7c0-10.1-7.6-17.7-17.9-17.7c-10.1,0-17.7,7.6-17.7,17.7
				C742.3,50.3,749.9,58.1,760,58.1"/>
			<path class="st1" d="M687.9,24.9v55.3c-8-9.3-19.4-14.6-33.8-14.6c-33.2,0-53.8,25-53.8,58.4c0,33.2,20.6,58.4,53.8,58.4
				c16.5,0,28.9-7,36.7-18.6l5,15.9h23.5V24.9H687.9z M660.1,155.7c-16.1,0-27.8-12.4-27.8-32c0-19.4,11.8-31.8,27.8-31.8
				c16.3,0,28.3,12.4,28.3,31.8C688.3,143.3,676.4,155.7,660.1,155.7z"/>
			<path class="st1" d="M535.3,65.3c-15.9,0-32.4,4.7-46.4,13.6l11.6,22.1c10.5-6.6,20.8-10.5,32.2-10.5c15.9,0,20.6,5.6,20.6,14.4
				v3.7l-23.5,3.5c-30.7,4.5-45.4,14.4-45.4,37.1c0,21.2,16.3,33,40.4,33c13.8,0,25.4-5.4,32.8-14.4l3.5,11.8h23.7V106
				C584.8,79.1,565.8,65.3,535.3,65.3z M553.7,138.3c0,14.4-8.7,20.4-20.8,20.4c-10.1,0-16.9-4.3-16.9-12.6c0-8,5.2-11.8,19-14.2
				l18.8-2.9V138.3z"/>
			<path class="st1" d="M385,54.6h26.2c19.8,0,29.1,9.1,29.1,24.7c0,15.5-9.3,24.7-29.1,24.7h-20l48.3,75.5h37.3l-34.9-53.4
				c21.9-8,32-25.4,32-47.2c0-30.5-19.2-54-62.7-54h-58.6v154.7H385V54.6z"/>
		</g>
	</g>
	<path class="st1" d="M371.7,268.5c-11.8,0-19.2-3.6-19.2-11.6c0-9.9,11.6-12.4,24.9-13.5v-1.7c0-4-2.9-5.4-8-5.4
		c-3.9,0-8.3,0.8-11.8,2.1l-2.5-6c4.8-1.7,10.1-2.6,15.8-2.6c10.8,0,17.4,3.9,17.4,13.6v22.6C384.3,267.6,378.1,268.5,371.7,268.5z
		 M377.5,248.1c-8.2,0.8-13.8,2-13.8,8.3c0,4.3,3.2,6.1,8.4,6.1c2,0,4-0.3,5.4-0.8V248.1z M653.8,268.5c-11.7,0-18.3-8.2-18.3-19.5
		c0-11.3,6.7-19.3,18.3-19.3c4.3,0,7.9,0.8,11,2.6l-2.4,5.9c-1.7-1.1-3.7-1.6-5.9-1.6c-5.9,0-8.9,5.2-8.9,12.3c0,7,3,12.3,8.9,12.3
		c2.3,0,4.2-0.5,5.9-1.6l2.6,6.3C661.7,267.6,658.1,268.5,653.8,268.5z M762.4,267.6V243c0-4.4-2.3-6.8-6.9-6.8
		c-2.3,0-4.1,0.8-5.7,2.1v29.3h-11.4V242c0-3.7-2.4-5.8-7.2-5.8c-2.1,0-3.9,0.3-5.5,0.8v30.6h-11.3v-35.3c4.9-1.8,10.4-2.7,16.3-2.7
		c5.9,0,10.7,1.4,14.1,3.9c3.8-2.5,8-3.9,13.4-3.9c9.8,0,15.6,4.8,15.6,13.3v24.7H762.4z M844.3,268.5c-11.8,0-19.2-3.6-19.2-11.6
		c0-9.9,11.6-12.4,24.9-13.5v-1.7c0-4-2.9-5.4-8-5.4c-3.9,0-8.3,0.8-11.8,2.1l-2.5-6c4.8-1.7,10.1-2.6,15.8-2.6
		c10.8,0,17.4,3.9,17.4,13.6v22.6C856.8,267.6,850.7,268.5,844.3,268.5z M850.1,248.1c-8.2,0.8-13.8,2-13.8,8.3
		c0,4.3,3.2,6.1,8.4,6.1c2,0,4-0.3,5.4-0.8V248.1z M894.2,267.6v-24.4c0-4.8-2.6-7-7.6-7c-1.9,0-3.9,0.3-5.4,0.8v30.6h-11.6v-35.3
		c4.9-1.8,11.1-2.7,17.3-2.7c12.1,0,19,4.1,19,13.6v24.3H894.2z M930.4,282.4h-12.5l7-14.8l-14.3-37.1h12.5l6.5,22.3
		c0.6,2.2,1,4.5,1.1,6h0.1c0.1-1.1,0.6-3.8,1.3-6l7.2-22.3h11L930.4,282.4z M479.2,268c-2.3,0-4.9-0.4-6.3-0.8v15.2h-11.1v-50.1
		c3.3-1.4,9.4-2.7,16-2.7c14.1,0,21.8,7.2,21.8,19.2C499.6,260.3,492.6,268,479.2,268z M478,237c-2,0-4.1,0.3-5.1,0.8v22.4
		c0.9,0.4,3.2,0.7,5.2,0.7c6.9,0,10.5-4.9,10.5-12C488.5,241.4,484.8,237,478,237z M799.4,268c-2.3,0-4.9-0.4-6.3-0.8v15.2H782
		v-50.1c3.3-1.4,9.4-2.7,16-2.7c14.1,0,21.8,7.2,21.8,19.2C819.8,260.3,812.8,268,799.4,268z M798.2,237c-2,0-4.1,0.3-5.1,0.8v22.4
		c0.9,0.4,3.2,0.7,5.2,0.7c6.9,0,10.5-4.9,10.5-12C808.7,241.4,805,237,798.2,237z M524.9,268.5c-12.7,0-19.8-8.3-19.8-19.4
		c0-11.1,7.1-19.3,19.8-19.3c12.7,0,19.8,8.3,19.8,19.3C544.7,260.1,537.7,268.5,524.9,268.5z M524.9,237c-5.8,0-8.7,4.5-8.7,11.9
		c0,7.4,2.9,11.8,8.7,11.8c5.9,0,8.8-4.4,8.8-11.8C533.7,241.5,530.8,237,524.9,237z M687.7,268.5c-12.7,0-19.8-8.3-19.8-19.4
		c0-11.1,7.1-19.3,19.8-19.3c12.7,0,19.8,8.3,19.8,19.3C707.5,260.1,700.5,268.5,687.7,268.5z M687.7,237c-5.8,0-8.7,4.5-8.7,11.9
		c0,7.4,2.9,11.8,8.7,11.8c5.9,0,8.8-4.4,8.8-11.8C696.5,241.5,693.6,237,687.7,237z M580.8,256.9c0-7.5-7.1-9.6-12.8-11.4
		c-3.8-1.2-6.7-2.3-6.7-5.1c0-2.2,2.3-3.9,6.2-3.9c2.9,0,6.9,1.2,8.7,2.1l3.4-6.4c-3.3-1.5-7.8-2.7-13.5-2.7c-10.2,0-16,4.4-16,10.9
		c0,7.3,6.9,9.5,12.5,11.2c3.9,1.2,6.7,2.4,6.7,5.1c0,2.5-2.6,4.1-6.6,4.1c-3.1,0-8.1-1.3-10.2-2.4l-3.6,7.2
		c3.3,1.5,8.7,2.7,14.2,2.7C574.7,268.5,580.8,263.9,580.8,256.9z M609.7,267.2v-7.8c-0.8,0.3-2,0.6-3.2,0.6c-2.8,0-5.1-1-5.1-4.1
		v-18.3h8.2v-7h-8.2v-10.9l-10.9,2.7v8.3H585v7h5.6v18.9c0,7.8,4,11.7,12.5,11.7C605.7,268.2,608.4,267.7,609.7,267.2z M454.7,248.9
		c0,12-7.7,19.2-21.8,19.2c-6.6,0-12.7-1.2-16-2.7v-50.1h11v15.2c1.4-0.4,4-0.8,6.3-0.8C447.7,229.7,454.7,237.4,454.7,248.9z
		 M443.6,248.9c0-7-3.6-12-10.5-12c-2,0-4.3,0.3-5.2,0.7V260c1,0.4,3.1,0.8,5.1,0.8C439.9,260.8,443.6,256.4,443.6,248.9z"/>
</g>
</svg>
